<?xml version="1.0" encoding="iso-8859-1"?>
<!-- Uploaded to: SVG Repo, www.svgrepo.com, Generator: SVG Repo Mixer Tools -->
<svg height="800px" width="800px" version="1.1" id="Layer_1" xmlns="http://www.w3.org/2000/svg" xmlns:xlink="http://www.w3.org/1999/xlink" 
	 viewBox="0 0 511.999 511.999" xml:space="preserve">
<polygon style="fill:#F15A29;" points="437.209,133.705 500.746,171.695 445.728,204.999 "/>
<path style="fill:#FAC51C;" d="M119.129,332.403c74.714,74.714,195.85,74.714,270.564,0s74.714-195.85,0-270.564L11.254,440.277
	h59.45c6.393,0,12.525-2.54,17.045-7.061l66.589-66.589L119.129,332.403z"/>
<g>
	<path style="fill:#231F20;" d="M506.52,162.037l-62.923-37.624c-10.039-26.148-25.548-50.132-45.947-70.531
		c-4.394-4.395-11.521-4.394-15.915,0L3.296,432.319c-3.219,3.219-4.181,8.059-2.439,12.265c1.742,4.206,5.845,6.947,10.398,6.947
		h59.45c9.445,0,18.325-3.679,25.002-10.357l64.571-64.57c11.801,6.208,24.186,11.193,36.991,14.937
		c-0.056,0.455-0.093,0.915-0.093,1.384v45.979h-25.704c-6.216,0-11.254,5.038-11.254,11.254c0,6.216,5.038,11.254,11.254,11.254
		h215.327c6.216,0,11.254-5.038,11.254-11.254c0-6.216-5.038-11.254-11.254-11.254H274.821V398.68
		c46.398-4.612,89.421-24.911,122.829-58.319c34.814-34.815,55.391-80.071,58.816-128.706l50.107-30.332
		c3.377-2.045,5.437-5.709,5.426-9.658C511.988,167.715,509.91,164.062,506.52,162.037z M79.792,425.259
		c-2.427,2.428-5.654,3.764-9.086,3.764H38.423l80.921-80.921c6.702,6.011,13.737,11.527,21.066,16.538L79.792,425.259z
		 M219.683,438.906v-42.181c10.683,1.836,21.585,2.825,32.63,2.936v39.245H219.683z M381.735,324.445
		c-67.533,67.534-175.809,70.102-246.444,7.712l21.784-21.784c16.612,16.818,34.71,25.242,35.599,25.649
		c0.041,0.019,0.082,0.037,0.123,0.055c19.396,8.608,40.126,12.972,61.616,12.972c23.34,0,45.684-5.115,66.414-15.204
		c5.589-2.72,7.915-9.456,5.195-15.044c-2.72-5.589-9.456-7.914-15.044-5.195c-17.635,8.582-36.667,12.934-56.565,12.934
		c-18.287,0-35.913-3.699-52.387-10.994c-0.96-0.456-15.756-7.619-29.033-21.091L389.451,77.996
		c29.117,32.917,45.025,74.795,45.025,119.123c0,8.707-0.622,17.316-1.83,25.786h-17.781c-18.201,0-34.876,10.84-42.455,27.562
		l-0.093,0.205c-2.596,5.647-0.123,12.33,5.525,14.926c1.523,0.7,3.121,1.032,4.693,1.032c4.261,0,8.337-2.432,10.232-6.557
		l0.07-0.152c0.001-0.001,0.048-0.106,0.048-0.107c3.965-8.748,12.592-14.401,21.979-14.401h13.096
		C419.772,275.013,404.04,302.14,381.735,324.445z M456.628,185.246c-0.565-9.843-1.829-19.554-3.772-29.074l26.06,15.582
		L456.628,185.246z"/>
	<circle style="fill:#231F20;" cx="381.645" cy="160.436" r="11.254"/>
	<path style="fill:#231F20;" d="M347.294,287.251c-0.329,0.334-0.662,0.667-0.997,0.997c-4.431,4.36-4.487,11.486-0.128,15.915
		c2.204,2.238,5.112,3.36,8.022,3.36c2.85,0,5.701-1.076,7.894-3.232c0.422-0.415,0.84-0.833,1.254-1.254
		c4.36-4.431,4.301-11.556-0.128-15.915C358.779,282.762,351.653,282.819,347.294,287.251z"/>
</g>
</svg>